<?xml version="1.0" encoding="UTF-8" standalone="no"?>
<!DOCTYPE svg PUBLIC "-//W3C//DTD SVG 20010904//EN"
  "http://www.w3.org/TR/2001/REC-SVG-20010904/DTD/svg10.dtd">

<svg xmlns="http://www.w3.org/2000/svg"
     width="3.33333in" height="3.33333in"
     viewBox="0 0 1000 1000">
  <path id="Squares"
        fill="white" stroke="black" stroke-width="1"
        d="M 286.00,128.00
           C 281.79,133.87 274.29,140.71 269.00,146.00
             269.00,146.00 241.00,174.00 241.00,174.00
             241.00,174.00 151.00,264.00 151.00,264.00
             151.00,264.00 116.00,299.00 116.00,299.00
             113.55,301.45 105.20,308.78 105.20,312.00
             105.20,315.33 114.43,323.43 117.00,326.00
             117.00,326.00 152.00,361.00 152.00,361.00
             152.00,361.00 242.00,451.00 242.00,451.00
             242.00,451.00 271.00,480.00 271.00,480.00
             276.29,485.29 283.79,492.13 288.00,498.00
             288.00,498.00 334.00,452.00 334.00,452.00
             334.00,452.00 425.00,361.00 425.00,361.00
             425.00,361.00 459.00,327.00 459.00,327.00
             461.45,324.55 469.80,317.22 469.80,314.00
             469.80,310.78 461.45,303.45 459.00,301.00
             459.00,301.00 424.00,266.00 424.00,266.00
             424.00,266.00 332.00,174.00 332.00,174.00
             332.00,174.00 286.00,128.00 286.00,128.00 Z
           M 690.00,130.34
           C 684.62,133.27 678.51,140.49 674.00,145.00
             674.00,145.00 646.00,173.00 646.00,173.00
             646.00,173.00 552.00,267.00 552.00,267.00
             552.00,267.00 520.00,299.00 520.00,299.00
             517.55,301.45 509.20,308.78 509.20,312.00
             509.20,315.07 515.79,320.79 518.00,323.00
             518.00,323.00 545.00,350.00 545.00,350.00
             545.00,350.00 652.00,457.00 652.00,457.00
             652.00,457.00 682.00,487.00 682.00,487.00
             684.48,489.48 690.26,496.60 694.00,495.66
             696.63,495.01 703.74,487.26 706.00,485.00
             706.00,485.00 733.00,458.00 733.00,458.00
             733.00,458.00 835.00,356.00 835.00,356.00
             835.00,356.00 865.00,326.00 865.00,326.00
             867.33,323.67 874.80,317.16 874.80,314.00
             874.80,310.84 867.33,304.33 865.00,302.00
             865.00,302.00 835.00,272.00 835.00,272.00
             835.00,272.00 729.00,166.00 729.00,166.00
             729.00,166.00 703.00,140.00 703.00,140.00
             699.33,136.33 695.44,130.58 690.00,130.34 Z
           M 488.00,330.00
           C 488.00,330.00 444.00,375.00 444.00,375.00
             444.00,375.00 356.00,463.00 356.00,463.00
             356.00,463.00 321.00,498.00 321.00,498.00
             318.40,500.60 308.03,510.21 307.34,513.00
             306.40,516.74 313.52,522.52 316.00,525.00
             316.00,525.00 345.00,554.00 345.00,554.00
             345.00,554.00 455.00,664.00 455.00,664.00
             455.00,664.00 481.00,690.00 481.00,690.00
             483.36,692.36 488.37,698.57 492.00,697.66
             494.79,696.97 504.40,686.60 507.00,684.00
             507.00,684.00 542.00,649.00 542.00,649.00
             542.00,649.00 630.00,561.00 630.00,561.00
             630.00,561.00 675.00,517.00 675.00,517.00
             675.00,517.00 644.00,486.00 644.00,486.00
             644.00,486.00 581.00,423.00 581.00,423.00
             581.00,423.00 519.00,361.00 519.00,361.00
             519.00,361.00 488.00,330.00 488.00,330.00 Z
           M 286.00,532.00
           C 286.00,532.00 255.00,564.00 255.00,564.00
             255.00,564.00 195.00,624.00 195.00,624.00
             195.00,624.00 135.00,684.00 135.00,684.00
             135.00,684.00 102.00,716.00 102.00,716.00
             102.00,716.00 145.00,759.00 145.00,759.00
             145.00,759.00 230.00,844.00 230.00,844.00
             230.00,844.00 267.00,881.00 267.00,881.00
             267.00,881.00 288.00,903.00 288.00,903.00
             288.00,903.00 330.00,861.00 330.00,861.00
             330.00,861.00 415.00,776.00 415.00,776.00
             415.00,776.00 452.00,739.00 452.00,739.00
             452.00,739.00 473.00,719.00 473.00,719.00
             473.00,719.00 442.00,688.00 442.00,688.00
             442.00,688.00 379.00,625.00 379.00,625.00
             379.00,625.00 317.00,563.00 317.00,563.00
             317.00,563.00 286.00,532.00 286.00,532.00 Z
           M 507.00,716.00
           C 507.00,716.00 553.00,762.00 553.00,762.00
             553.00,762.00 645.00,854.00 645.00,854.00
             645.00,854.00 680.00,889.00 680.00,889.00
             682.45,891.45 689.78,899.80 693.00,899.80
             696.22,899.80 703.55,891.45 706.00,889.00
             706.00,889.00 741.00,854.00 741.00,854.00
             741.00,854.00 831.00,764.00 831.00,764.00
             831.00,764.00 859.00,736.00 859.00,736.00
             864.29,730.71 871.13,723.21 877.00,719.00
             877.00,719.00 831.00,673.00 831.00,673.00
             831.00,673.00 739.00,581.00 739.00,581.00
             739.00,581.00 704.00,546.00 704.00,546.00
             701.55,543.55 694.22,535.20 691.00,535.20
             687.78,535.20 680.45,543.55 678.00,546.00
             678.00,546.00 643.00,581.00 643.00,581.00
             643.00,581.00 553.00,671.00 553.00,671.00
             553.00,671.00 525.00,699.00 525.00,699.00
             519.71,704.29 512.87,711.79 507.00,716.00 Z"/>
</svg>
